<svg width="40" height="40" viewBox="0 0 40 40" fill="none" xmlns="http://www.w3.org/2000/svg">
  <rect width="40" height="40" rx="8" fill="#00584A"/>
  <path d="M12 8h16c2.2 0 4 1.8 4 4v16c0 2.2-1.8 4-4 4H12c-2.2 0-4-1.8-4-4V12c0-2.2 1.8-4 4-4z" fill="#00584A"/>
  <path d="M15 13h10v2H15v-2zm0 4h10v2H15v-2zm0 4h7v2h-7v-2z" fill="#E6F4F1"/>
  <circle cx="26" cy="24" r="3" fill="#6B46C1"/>
  <path d="M24.5 24l1.5 1.5 3-3" stroke="white" stroke-width="1.5" stroke-linecap="round" stroke-linejoin="round"/>
</svg> 